<?xml version="1.0" encoding="UTF-8" standalone="no"?>
<!-- Created with Inkscape (http://www.inkscape.org/) -->

<svg
   width="32mm"
   height="33mm"
   viewBox="0 0 32 33"
   version="1.1"
   id="svg5"
   inkscape:version="1.1.2 (0a00cf5339, 2022-02-04)"
   sodipodi:docname="swap_a.svg"
   xmlns:inkscape="http://www.inkscape.org/namespaces/inkscape"
   xmlns:sodipodi="http://sodipodi.sourceforge.net/DTD/sodipodi-0.dtd"
   xmlns="http://www.w3.org/2000/svg"
   xmlns:svg="http://www.w3.org/2000/svg">
  <sodipodi:namedview
     id="namedview7"
     pagecolor="#d0e2d4"
     bordercolor="#666666"
     borderopacity="1.0"
     inkscape:pageshadow="2"
     inkscape:pageopacity="1"
     inkscape:pagecheckerboard="0"
     inkscape:document-units="mm"
     showgrid="false"
     inkscape:zoom="4"
     inkscape:cx="42.25"
     inkscape:cy="59.25"
     inkscape:window-width="1920"
     inkscape:window-height="1011"
     inkscape:window-x="0"
     inkscape:window-y="32"
     inkscape:window-maximized="1"
     inkscape:current-layer="layer1">
    <inkscape:grid
       type="xygrid"
       id="grid5939"
       units="mm"
       spacingx="0.99999998"
       spacingy="0.99999998" />
  </sodipodi:namedview>
  <defs
     id="defs2">
    <marker
       style="overflow:visible;"
       id="marker6899"
       refX="0.0"
       refY="0.0"
       orient="auto"
       inkscape:stockid="Arrow2Send"
       inkscape:isstock="true">
      <path
         transform="scale(0.3) rotate(180) translate(-2.3,0)"
         d="M 8.7185878,4.0337352 L -2.2072895,0.016013256 L 8.7185884,-4.0017078 C 6.9730900,-1.6296469 6.9831476,1.6157441 8.7185878,4.0337352 z "
         style="stroke:context-stroke;fill-rule:evenodd;fill:context-stroke;stroke-width:0.62500000;stroke-linejoin:round;"
         id="path6897" />
    </marker>
    <marker
       style="overflow:visible;"
       id="marker6889"
       refX="0.0"
       refY="0.0"
       orient="auto"
       inkscape:stockid="Arrow2Mend"
       inkscape:isstock="true">
      <path
         transform="scale(0.6) rotate(180) translate(0,0)"
         d="M 8.7185878,4.0337352 L -2.2072895,0.016013256 L 8.7185884,-4.0017078 C 6.9730900,-1.6296469 6.9831476,1.6157441 8.7185878,4.0337352 z "
         style="stroke:context-stroke;fill-rule:evenodd;fill:context-stroke;stroke-width:0.62500000;stroke-linejoin:round;"
         id="path6887" />
    </marker>
    <marker
       style="overflow:visible;"
       id="marker6879"
       refX="0.0"
       refY="0.0"
       orient="auto"
       inkscape:stockid="Arrow2Mend"
       inkscape:isstock="true">
      <path
         transform="scale(0.6) rotate(180) translate(0,0)"
         d="M 8.7185878,4.0337352 L -2.2072895,0.016013256 L 8.7185884,-4.0017078 C 6.9730900,-1.6296469 6.9831476,1.6157441 8.7185878,4.0337352 z "
         style="stroke:context-stroke;fill-rule:evenodd;fill:context-stroke;stroke-width:0.62500000;stroke-linejoin:round;"
         id="path6877" />
    </marker>
    <marker
       style="overflow:visible;"
       id="marker6793"
       refX="0.0"
       refY="0.0"
       orient="auto"
       inkscape:stockid="Arrow2Send"
       inkscape:isstock="true">
      <path
         transform="scale(0.3) rotate(180) translate(-2.3,0)"
         d="M 8.7185878,4.0337352 L -2.2072895,0.016013256 L 8.7185884,-4.0017078 C 6.9730900,-1.6296469 6.9831476,1.6157441 8.7185878,4.0337352 z "
         style="stroke:context-stroke;fill-rule:evenodd;fill:context-stroke;stroke-width:0.62500000;stroke-linejoin:round;"
         id="path6791" />
    </marker>
    <marker
       style="overflow:visible;"
       id="Arrow2Send"
       refX="0.0"
       refY="0.0"
       orient="auto"
       inkscape:stockid="Arrow2Send"
       inkscape:isstock="true">
      <path
         transform="scale(0.3) rotate(180) translate(-2.3,0)"
         d="M 8.7185878,4.0337352 L -2.2072895,0.016013256 L 8.7185884,-4.0017078 C 6.9730900,-1.6296469 6.9831476,1.6157441 8.7185878,4.0337352 z "
         style="stroke:context-stroke;fill-rule:evenodd;fill:context-stroke;stroke-width:0.62500000;stroke-linejoin:round;"
         id="path6295" />
    </marker>
    <marker
       style="overflow:visible;"
       id="marker6614"
       refX="0.0"
       refY="0.0"
       orient="auto"
       inkscape:stockid="Arrow2Mend"
       inkscape:isstock="true">
      <path
         transform="scale(0.6) rotate(180) translate(0,0)"
         d="M 8.7185878,4.0337352 L -2.2072895,0.016013256 L 8.7185884,-4.0017078 C 6.9730900,-1.6296469 6.9831476,1.6157441 8.7185878,4.0337352 z "
         style="stroke:context-stroke;fill-rule:evenodd;fill:context-stroke;stroke-width:0.62500000;stroke-linejoin:round;"
         id="path6612" />
    </marker>
    <marker
       style="overflow:visible;"
       id="Arrow2Mend"
       refX="0.0"
       refY="0.0"
       orient="auto"
       inkscape:stockid="Arrow2Mend"
       inkscape:isstock="true">
      <path
         transform="scale(0.6) rotate(180) translate(0,0)"
         d="M 8.7185878,4.0337352 L -2.2072895,0.016013256 L 8.7185884,-4.0017078 C 6.9730900,-1.6296469 6.9831476,1.6157441 8.7185878,4.0337352 z "
         style="stroke:context-stroke;fill-rule:evenodd;fill:context-stroke;stroke-width:0.62500000;stroke-linejoin:round;"
         id="path6289" />
    </marker>
    <marker
       style="overflow:visible;"
       id="Arrow2Lend"
       refX="0.0"
       refY="0.0"
       orient="auto"
       inkscape:stockid="Arrow2Lend"
       inkscape:isstock="true">
      <path
         transform="scale(1.1) rotate(180) translate(1,0)"
         d="M 8.7185878,4.0337352 L -2.2072895,0.016013256 L 8.7185884,-4.0017078 C 6.9730900,-1.6296469 6.9831476,1.6157441 8.7185878,4.0337352 z "
         style="stroke:context-stroke;fill-rule:evenodd;fill:context-stroke;stroke-width:0.62500000;stroke-linejoin:round;"
         id="path6283" />
    </marker>
    <marker
       style="overflow:visible;"
       id="Arrow1Lend"
       refX="0.0"
       refY="0.0"
       orient="auto"
       inkscape:stockid="Arrow1Lend"
       inkscape:isstock="true">
      <path
         transform="scale(0.8) rotate(180) translate(12.5,0)"
         style="fill-rule:evenodd;fill:context-stroke;stroke:context-stroke;stroke-width:1.0pt;"
         d="M 0.0,0.0 L 5.0,-5.0 L -12.5,0.0 L 5.0,5.0 L 0.0,0.0 z "
         id="path6265" />
    </marker>
  </defs>
  <g
     inkscape:label="Layer 1"
     inkscape:groupmode="layer"
     id="layer1">
    <rect
       style="fill:#b5d2bc;stroke-width:0.999999;stroke-miterlimit:2"
       id="rect1293"
       width="32"
       height="33"
       x="3.75167e-05"
       y="3.7999998e-05" />
    <g
       id="g4781"
       transform="translate(-66.195712,-120.16561)">
      <g
         id="g2286"
         transform="translate(7.9999995,1.058299)">
        <rect
           style="fill:#83b397;fill-opacity:1;stroke-width:2.64583"
           id="rect846"
           width="8"
           height="8"
           x="66.195732"
           y="135.10736"
           ry="0" />
        <path
           id="rect966"
           style="fill:#ffffff;stroke-width:2.64583"
           d="m 66.195732,135.10736 h 8 l -0.400002,0.39999 h -7.199997 z"
           sodipodi:nodetypes="ccccc" />
        <path
           id="path1580"
           style="fill:#121232;fill-opacity:0.2;stroke-width:2.64583"
           d="m 74.195732,135.10736 v 8 l -0.39999,-0.4 v -7.19999 z"
           sodipodi:nodetypes="ccccc" />
        <path
           id="path1654"
           style="fill:#121232;fill-opacity:0.5;stroke-width:2.64583"
           d="m 74.195752,143.10735 h -8 l 0.4,-0.39999 h 7.19999 z"
           sodipodi:nodetypes="ccccc" />
      </g>
      <g
         id="g2274">
        <rect
           style="fill:#83b397;fill-opacity:1;stroke-width:2.64583"
           id="rect1680"
           width="8"
           height="9"
           x="66.195732"
           y="144.16568"
           ry="0" />
        <path
           id="path1684"
           style="fill:#ffffff;stroke-width:2.64583"
           d="m 66.195732,144.1657 h 8 l -0.400002,0.39999 h -7.199997 z"
           sodipodi:nodetypes="ccccc" />
        <path
           id="path1686"
           style="fill:#121232;fill-opacity:0.2;stroke-width:2.64583"
           d="m 74.195732,144.1657 v 8 l -0.39999,-0.4 v -7.19999 z"
           sodipodi:nodetypes="ccccc" />
        <path
           id="path1688"
           style="fill:#121232;fill-opacity:0.5;stroke-width:2.64583"
           d="m 74.195752,152.16569 -0.40001,-0.39999 h -7.19999 l -0.4,0.39999 -2e-5,0.99999 h 8 z"
           sodipodi:nodetypes="cccc" />
      </g>
      <g
         id="g4494">
        <path
           id="path1690"
           style="fill:#ffffff;stroke-width:2.64583"
           d="m 74.195732,144.16568 h 8 l -0.400002,0.39999 h -7.199997 z"
           sodipodi:nodetypes="ccccc" />
        <path
           id="path1692"
           style="fill:#121232;fill-opacity:0.2;stroke-width:2.64583"
           d="m 82.195732,144.16568 v 8 l -0.39999,-0.4 v -7.19999 z"
           sodipodi:nodetypes="ccccc" />
        <path
           id="path2165"
           style="fill:#121232;fill-opacity:0.5;stroke-width:2.64583"
           d="m 82.195752,152.16567 -0.40001,-0.39999 h -7.19999 l -0.4,0.39999 -2e-5,0.99999 h 8 z"
           sodipodi:nodetypes="cccc" />
      </g>
      <g
         id="g2302"
         transform="translate(16,-2.0068359e-5)">
        <rect
           style="fill:#83b397;fill-opacity:1;stroke-width:2.64583"
           id="rect2294"
           width="8"
           height="9"
           x="66.195732"
           y="144.16568"
           ry="0" />
        <path
           id="path2296"
           style="fill:#ffffff;stroke-width:2.64583"
           d="m 66.195732,144.1657 h 8 l -0.400002,0.39999 h -7.199997 z"
           sodipodi:nodetypes="ccccc" />
        <path
           id="path2298"
           style="fill:#121232;fill-opacity:0.2;stroke-width:2.64583"
           d="m 74.195732,144.1657 v 8 l -0.39999,-0.4 v -7.19999 z"
           sodipodi:nodetypes="ccccc" />
        <path
           id="path2300"
           style="fill:#121232;fill-opacity:0.5;stroke-width:2.64583"
           d="m 74.195752,152.16569 -0.40001,-0.39999 h -7.19999 l -0.4,0.39999 -2e-5,0.99999 h 8 z"
           sodipodi:nodetypes="cccc" />
      </g>
      <g
         id="g2322"
         transform="translate(24.000019,1.0582882)">
        <rect
           style="fill:#83b397;fill-opacity:1;stroke-width:2.64583"
           id="rect2314"
           width="8"
           height="8"
           x="66.195732"
           y="135.10736"
           ry="0" />
        <path
           id="path2316"
           style="fill:#ffffff;stroke-width:2.64583"
           d="m 66.195732,135.10736 h 8 l -0.400002,0.39999 h -7.199997 z"
           sodipodi:nodetypes="ccccc" />
        <path
           id="path2318"
           style="fill:#121232;fill-opacity:0.2;stroke-width:2.64583"
           d="m 74.195732,135.10736 v 8 l -0.39999,-0.4 v -7.19999 z"
           sodipodi:nodetypes="ccccc" />
        <path
           id="path2320"
           style="fill:#121232;fill-opacity:0.5;stroke-width:2.64583"
           d="m 74.195752,143.10735 h -8 l 0.4,-0.39999 h 7.19999 z"
           sodipodi:nodetypes="ccccc" />
      </g>
      <g
         id="g4583">
        <path
           id="path2326"
           style="fill:#ffffff;stroke-width:2.64583"
           d="m 66.195712,136.16569 h 8 l -0.400002,0.39999 h -7.199997 z"
           sodipodi:nodetypes="ccccc" />
        <path
           id="path2328"
           style="fill:#121232;fill-opacity:0.2;stroke-width:2.64583"
           d="m 74.195712,136.16569 v 8 l -0.39999,-0.4 v -7.19999 z"
           sodipodi:nodetypes="ccccc" />
        <path
           id="path2330"
           style="fill:#121232;fill-opacity:0.5;stroke-width:2.64583"
           d="m 74.195732,144.16568 h -8 l 0.4,-0.39999 h 7.19999 z"
           sodipodi:nodetypes="ccccc" />
      </g>
      <g
         id="g2342"
         transform="translate(-1.0672851e-6,-6.9417018)">
        <rect
           style="fill:#83b397;fill-opacity:1;stroke-width:2.64583"
           id="rect2334"
           width="8"
           height="8"
           x="66.195732"
           y="135.10736"
           ry="0" />
        <path
           id="path2336"
           style="fill:#ffffff;stroke-width:2.64583"
           d="m 66.195732,135.10736 h 8 l -0.400002,0.39999 h -7.199997 z"
           sodipodi:nodetypes="ccccc" />
        <path
           id="path2338"
           style="fill:#121232;fill-opacity:0.2;stroke-width:2.64583"
           d="m 74.195732,135.10736 v 8 l -0.39999,-0.4 v -7.19999 z"
           sodipodi:nodetypes="ccccc" />
        <path
           id="path2340"
           style="fill:#121232;fill-opacity:0.5;stroke-width:2.64583"
           d="m 74.195752,143.10735 h -8 l 0.4,-0.39999 h 7.19999 z"
           sodipodi:nodetypes="ccccc" />
      </g>
      <g
         id="g2362"
         transform="translate(16.000018,-6.9417126)">
        <rect
           style="fill:#83b397;fill-opacity:1;stroke-width:2.64583"
           id="rect2354"
           width="8"
           height="8"
           x="66.195732"
           y="135.10736"
           ry="0" />
        <path
           id="path2356"
           style="fill:#ffffff;stroke-width:2.64583"
           d="m 66.195732,135.10736 h 8 l -0.400002,0.39999 h -7.199997 z"
           sodipodi:nodetypes="ccccc" />
        <path
           id="path2358"
           style="fill:#121232;fill-opacity:0.2;stroke-width:2.64583"
           d="m 74.195732,135.10736 v 8 l -0.39999,-0.4 v -7.19999 z"
           sodipodi:nodetypes="ccccc" />
        <path
           id="path2360"
           style="fill:#121232;fill-opacity:0.5;stroke-width:2.64583"
           d="m 74.195752,143.10735 h -8 l 0.4,-0.39999 h 7.19999 z"
           sodipodi:nodetypes="ccccc" />
      </g>
      <g
         id="g2382"
         transform="translate(8.0000174,-14.941713)">
        <rect
           style="fill:#83b397;fill-opacity:1;stroke-width:2.64583"
           id="rect2374"
           width="8"
           height="8"
           x="66.195732"
           y="135.10736"
           ry="0" />
        <path
           id="path2376"
           style="fill:#ffffff;stroke-width:2.64583"
           d="m 66.195732,135.10736 h 8 l -0.400002,0.39999 h -7.199997 z"
           sodipodi:nodetypes="ccccc" />
        <path
           id="path2378"
           style="fill:#121232;fill-opacity:0.2;stroke-width:2.64583"
           d="m 74.195732,135.10736 v 8 l -0.39999,-0.4 v -7.19999 z"
           sodipodi:nodetypes="ccccc" />
        <path
           id="path2380"
           style="fill:#121232;fill-opacity:0.5;stroke-width:2.64583"
           d="m 74.195752,143.10735 h -8 l 0.4,-0.39999 h 7.19999 z"
           sodipodi:nodetypes="ccccc" />
      </g>
      <g
         id="g2402"
         transform="translate(24.000037,-14.941724)">
        <rect
           style="fill:#83b397;fill-opacity:1;stroke-width:2.64583"
           id="rect2394"
           width="8"
           height="8"
           x="66.195732"
           y="135.10736"
           ry="0" />
        <path
           id="path2396"
           style="fill:#ffffff;stroke-width:2.64583"
           d="m 66.195732,135.10736 h 8 l -0.400002,0.39999 h -7.199997 z"
           sodipodi:nodetypes="ccccc" />
        <path
           id="path2398"
           style="fill:#121232;fill-opacity:0.2;stroke-width:2.64583"
           d="m 74.195732,135.10736 v 8 l -0.39999,-0.4 v -7.19999 z"
           sodipodi:nodetypes="ccccc" />
        <path
           id="path2400"
           style="fill:#121232;fill-opacity:0.5;stroke-width:2.64583"
           d="m 74.195752,143.10735 h -8 l 0.4,-0.39999 h 7.19999 z"
           sodipodi:nodetypes="ccccc" />
      </g>
      <g
         id="g4591"
         transform="translate(16.000039,-4.0960156e-5)">
        <path
           id="path4585"
           style="fill:#ffffff;stroke-width:2.64583"
           d="m 66.195712,136.16569 h 8 l -0.400002,0.39999 h -7.199997 z"
           sodipodi:nodetypes="ccccc" />
        <path
           id="path4587"
           style="fill:#121232;fill-opacity:0.2;stroke-width:2.64583"
           d="m 74.195712,136.16569 v 8 l -0.39999,-0.4 v -7.19999 z"
           sodipodi:nodetypes="ccccc" />
        <path
           id="path4589"
           style="fill:#121232;fill-opacity:0.5;stroke-width:2.64583"
           d="m 74.195732,144.16568 h -8 l 0.4,-0.39999 h 7.19999 z"
           sodipodi:nodetypes="ccccc" />
      </g>
      <g
         id="g4599"
         transform="translate(8.0000374,-8.000043)">
        <path
           id="path4593"
           style="fill:#ffffff;stroke-width:2.64583"
           d="m 66.195712,136.16569 h 8 l -0.400002,0.39999 h -7.199997 z"
           sodipodi:nodetypes="ccccc" />
        <path
           id="path4595"
           style="fill:#121232;fill-opacity:0.2;stroke-width:2.64583"
           d="m 74.195712,136.16569 v 8 l -0.39999,-0.4 v -7.19999 z"
           sodipodi:nodetypes="ccccc" />
        <path
           id="path4597"
           style="fill:#121232;fill-opacity:0.5;stroke-width:2.64583"
           d="m 74.195732,144.16568 h -8 l 0.4,-0.39999 h 7.19999 z"
           sodipodi:nodetypes="ccccc" />
      </g>
      <g
         id="g4607"
         transform="translate(24.000076,-8.000084)">
        <path
           id="path4601"
           style="fill:#ffffff;stroke-width:2.64583"
           d="m 66.195712,136.16569 h 8 l -0.400002,0.39999 h -7.199997 z"
           sodipodi:nodetypes="ccccc" />
        <path
           id="path4603"
           style="fill:#121232;fill-opacity:0.2;stroke-width:2.64583"
           d="m 74.195712,136.16569 v 8 l -0.39999,-0.4 v -7.19999 z"
           sodipodi:nodetypes="ccccc" />
        <path
           id="path4605"
           style="fill:#121232;fill-opacity:0.5;stroke-width:2.64583"
           d="m 74.195732,144.16568 h -8 l 0.4,-0.39999 h 7.19999 z"
           sodipodi:nodetypes="ccccc" />
      </g>
      <g
         id="g4615"
         transform="translate(3.7516699e-5,-16.000042)">
        <path
           id="path4609"
           style="fill:#ffffff;stroke-width:2.64583"
           d="m 66.195712,136.16569 h 8 l -0.400002,0.39999 h -7.199997 z"
           sodipodi:nodetypes="ccccc" />
        <path
           id="path4611"
           style="fill:#121232;fill-opacity:0.2;stroke-width:2.64583"
           d="m 74.195712,136.16569 v 8 l -0.39999,-0.4 v -7.19999 z"
           sodipodi:nodetypes="ccccc" />
        <path
           id="path4613"
           style="fill:#121232;fill-opacity:0.5;stroke-width:2.64583"
           d="m 74.195732,144.16568 h -8 l 0.4,-0.39999 h 7.19999 z"
           sodipodi:nodetypes="ccccc" />
      </g>
      <g
         id="g4623"
         transform="translate(16.000076,-16.000083)">
        <path
           id="path4617"
           style="fill:#ffffff;stroke-width:2.64583"
           d="m 66.195712,136.16569 h 8 l -0.400002,0.39999 h -7.199997 z"
           sodipodi:nodetypes="ccccc" />
        <path
           id="path4619"
           style="fill:#121232;fill-opacity:0.2;stroke-width:2.64583"
           d="m 74.195712,136.16569 v 8 l -0.39999,-0.4 v -7.19999 z"
           sodipodi:nodetypes="ccccc" />
        <path
           id="path4621"
           style="fill:#121232;fill-opacity:0.5;stroke-width:2.64583"
           d="m 74.195732,144.16568 h -8 l 0.4,-0.39999 h 7.19999 z"
           sodipodi:nodetypes="ccccc" />
      </g>
      <g
         id="g4631"
         transform="translate(16)">
        <path
           id="path4625"
           style="fill:#ffffff;stroke-width:2.64583"
           d="m 74.195732,144.16568 h 8 l -0.400002,0.39999 h -7.199997 z"
           sodipodi:nodetypes="ccccc" />
        <path
           id="path4627"
           style="fill:#121232;fill-opacity:0.2;stroke-width:2.64583"
           d="m 82.195732,144.16568 v 8 l -0.39999,-0.4 v -7.19999 z"
           sodipodi:nodetypes="ccccc" />
        <path
           id="path4629"
           style="fill:#121232;fill-opacity:0.5;stroke-width:2.64583"
           d="m 82.195752,152.16567 -0.40001,-0.39999 h -7.19999 l -0.4,0.39999 -2e-5,0.99999 h 8 z"
           sodipodi:nodetypes="cccc" />
      </g>
    </g>
    <g
       id="g8037"
       transform="matrix(0.24090812,0,0,0.24090812,16.813083,8.480602)"
       style="stroke-width:4.15095">
      <path
         style="color:#000000;fill:#000000;stroke-width:4.15094;-inkscape-stroke:none"
         d="m 13.229897,3.016419 c -3.158436,7.3e-5 -5.7466226,2.586308 -5.7466946,5.74475 v 0.002 c 8.79e-4,1.14567 0.447549,2.18481 1.070921,3.11864 -2.718527,1.79383 -5.568209,5.52433 -5.568209,13.07197 v 1.24746 H 13.229897 23.472418 v -1.24746 c 0,-7.54819 -2.849501,-11.27831 -5.56821,-13.07197 0.623374,-0.93383 1.070043,-1.97297 1.070923,-3.11864 v -0.002 C 18.97506,5.602728 16.388334,3.016492 13.229897,3.016419 Z"
         id="path8033" />
      <path
         style="color:#000000;fill:#ffffff;fill-opacity:1;stroke-width:4.15094;-inkscape-stroke:none"
         d="m 13.22941,4.264852 a 4.4973901,4.4973901 0 0 1 4.497287,4.497287 4.4973901,4.4973901 0 0 1 -1.598093,3.43466 c 2.62904,1.2043 6.095381,4.37975 6.095381,12.75596 H 13.22941 4.2348364 c 0,-8.37621 3.46634,-11.55166 6.0953786,-12.75596 A 4.4973901,4.4973901 0 0 1 8.7321234,8.762139 4.4973901,4.4973901 0 0 1 13.22941,4.264852 Z"
         id="path8035" />
    </g>
    <path
       id="path8041"
       style="fill:#000000;fill-opacity:1;stroke:none;stroke-width:0.264583px;stroke-linecap:butt;stroke-linejoin:miter;stroke-opacity:1"
       d="m 12.000058,17.50808 a 1.0834578,1.0834578 0 0 0 -1.083433,1.083434 1.0834578,1.0834578 0 0 0 0.384993,0.827436 c -0.633358,0.290127 -1.4684263,1.055118 -1.4684263,3.073017 h 2.1668663 2.166867 c 0,-2.017899 -0.83507,-2.78289 -1.468427,-3.073017 a 1.0834578,1.0834578 0 0 0 0.384994,-0.827436 1.0834578,1.0834578 0 0 0 -1.083434,-1.083434 z" />
  </g>
</svg>
