<?xml version="1.0" encoding="UTF-8" standalone="no"?>
<!-- Created with Inkscape (http://www.inkscape.org/) -->

<svg
   width="100"
   height="100"
   viewBox="0 0 26.458332 26.458333"
   version="1.1"
   id="svg59098"
   xml:space="preserve"
   sodipodi:docname="black_queen.svg"
   inkscape:version="1.2.2 (b0a8486541, 2022-12-01)"
   xmlns:inkscape="http://www.inkscape.org/namespaces/inkscape"
   xmlns:sodipodi="http://sodipodi.sourceforge.net/DTD/sodipodi-0.dtd"
   xmlns="http://www.w3.org/2000/svg"
   xmlns:svg="http://www.w3.org/2000/svg"><sodipodi:namedview
     id="namedview70855"
     pagecolor="#ffffff"
     bordercolor="#666666"
     borderopacity="1.0"
     inkscape:showpageshadow="2"
     inkscape:pageopacity="0.0"
     inkscape:pagecheckerboard="0"
     inkscape:deskcolor="#d1d1d1"
     showgrid="false"
     inkscape:zoom="0.260625"
     inkscape:cx="-590.88729"
     inkscape:cy="-425.89928"
     inkscape:window-width="1920"
     inkscape:window-height="1015"
     inkscape:window-x="0"
     inkscape:window-y="0"
     inkscape:window-maximized="1"
     inkscape:current-layer="svg59098" /><defs
     id="defs59095" /><path
     id="path61514"
     style="fill:#000000;fill-opacity:1;stroke:none;stroke-width:0.264583px;stroke-linecap:butt;stroke-linejoin:miter;stroke-opacity:1"
     d="m 8.7328463,2.467795 c -1.37681,3.2e-5 -2.49926,1.122493 -2.4993,2.499305 4e-5,1.292255 0.98878,2.359003 2.24865,2.485162 v 8.194309 l -2.43835,-2.21353 c 0.42646,-0.448269 0.68906,-1.054004 0.68907,-1.720011 -2e-5,-1.377025 -1.1203301,-2.499574 -2.4973601,-2.499306 -1.3768,3.3e-5 -2.49926,1.122492 -2.49929,2.499306 3e-5,1.376814 1.12249,2.497323 2.49929,2.497355 0.0897,1.8e-5 0.17844,-0.0049 0.2657901,-0.01415 l 2.68511,10.756524 h 0.19702 11.8903497 l 2.68511,-10.756524 c 0.0874,0.0092 0.17603,0.01414 0.26578,0.01415 1.37679,-3.2e-5 2.49733,-1.120541 2.49735,-2.497355 -2e-5,-1.376814 -1.12056,-2.499273 -2.49735,-2.499306 -1.37681,3.3e-5 -2.49928,1.122492 -2.49931,2.499306 10e-6,0.666153 0.26333,1.271708 0.69055,1.720011 l -2.43982,2.214993 V 7.452262 c 1.26059,-0.125264 2.24861,-1.192248 2.24865,-2.485162 -4e-5,-1.376812 -1.12055,-2.499273 -2.49735,-2.499305 -1.37683,3.2e-5 -2.49928,1.122493 -2.49932,2.499305 3e-5,0.938516 0.52173,1.757622 1.2899,2.184272 L 13.230146,14.687813 9.9422762,7.150884 C 10.709566,6.724144 11.230186,5.905378 11.230206,4.9671 11.230166,3.590288 10.109666,2.467827 8.7328463,2.467795 Z" /></svg>
