<?xml version="1.0" encoding="UTF-8" standalone="no"?>
<!-- Created with Inkscape (http://www.inkscape.org/) -->

<svg
   width="100"
   height="100"
   viewBox="0 0 26.458332 26.458333"
   version="1.1"
   id="svg59098"
   xml:space="preserve"
   sodipodi:docname="white_bishop.svg"
   inkscape:version="1.1.2 (0a00cf5339, 2022-02-04)"
   xmlns:inkscape="http://www.inkscape.org/namespaces/inkscape"
   xmlns:sodipodi="http://sodipodi.sourceforge.net/DTD/sodipodi-0.dtd"
   xmlns="http://www.w3.org/2000/svg"
   xmlns:svg="http://www.w3.org/2000/svg"><sodipodi:namedview
     id="namedview64004"
     pagecolor="#ffffff"
     bordercolor="#666666"
     borderopacity="1.0"
     inkscape:showpageshadow="2"
     inkscape:pageopacity="0.0"
     inkscape:pagecheckerboard="0"
     inkscape:deskcolor="#d1d1d1"
     showgrid="false"
     inkscape:zoom="4.17"
     inkscape:cx="12.230216"
     inkscape:cy="39.808153"
     inkscape:window-width="1920"
     inkscape:window-height="1011"
     inkscape:window-x="0"
     inkscape:window-y="32"
     inkscape:window-maximized="1"
     inkscape:current-layer="svg59098"
     inkscape:pageshadow="2" /><defs
     id="defs59095" /><path
     style="color:#000000;fill:#000000;stroke-width:0.999995;-inkscape-stroke:none"
     d="M 13.22892,0.89095005 12.467668,1.4771281 c 0,0 -3.730082,2.8542609 -6.500631,7.2638354 C 3.1964865,13.150543 1.3639375,19.443913 5.4398655,25.638703 l 0.370629,0.56228 h 7.4184255 7.418915 l 0.370629,-0.56228 C 25.094397,19.443913 23.261842,13.150543 20.491293,8.7409635 17.720743,4.331389 13.990172,1.4771281 13.990172,1.4771281 Z"
     id="path61921" /><path
     id="path2068"
     style="fill:#fefefe;fill-opacity:1;stroke:none;stroke-width:0.264583px;stroke-linecap:butt;stroke-linejoin:miter;stroke-opacity:1"
     d="m 13.229166,2.4659992 c 0,0 -14.298587,11.0079808 -6.7458412,22.4869988 h 6.7458412 6.745841 C 24.459859,18.136719 21.239566,11.486237 17.883662,7.2083455 16.652551,8.3843725 14.932649,10.226264 13.515453,12.493294 L 11.720214,11.370882 C 13.291808,8.8568675 15.180708,6.8496505 16.514237,5.5872555 14.736931,3.6271182 13.229166,2.4659992 13.229166,2.4659992 Z" /></svg>
