<?xml version="1.0" encoding="UTF-8" standalone="no"?>
<!-- Created with Inkscape (http://www.inkscape.org/) -->

<svg
   width="100"
   height="100"
   viewBox="0 0 26.458332 26.458333"
   version="1.1"
   id="svg59098"
   xml:space="preserve"
   sodipodi:docname="white_king.svg"
   inkscape:version="1.2.2 (b0a8486541, 2022-12-01)"
   xmlns:inkscape="http://www.inkscape.org/namespaces/inkscape"
   xmlns:sodipodi="http://sodipodi.sourceforge.net/DTD/sodipodi-0.dtd"
   xmlns="http://www.w3.org/2000/svg"
   xmlns:svg="http://www.w3.org/2000/svg"><sodipodi:namedview
     id="namedview65833"
     pagecolor="#ffffff"
     bordercolor="#666666"
     borderopacity="1.0"
     inkscape:showpageshadow="2"
     inkscape:pageopacity="0.0"
     inkscape:pagecheckerboard="0"
     inkscape:deskcolor="#d1d1d1"
     showgrid="false"
     inkscape:zoom="2.085"
     inkscape:cx="-184.17266"
     inkscape:cy="-76.738609"
     inkscape:window-width="1920"
     inkscape:window-height="1015"
     inkscape:window-x="0"
     inkscape:window-y="0"
     inkscape:window-maximized="1"
     inkscape:current-layer="svg59098"><inkscape:grid
       type="xygrid"
       id="grid65952" /></sodipodi:namedview><defs
     id="defs59095" /><path
     style="color:#000000;fill:#000000;stroke-width:0.999995;-inkscape-stroke:none"
     d="m 9.8043298,1.217407 0.1936,1.417167 0.2248202,1.647835 -2.7850702,-0.41842 v 5.97541 c -2.6764837,0.269134 -4.75036,1.91237 -5.77646,4.22859 -1.56279999,3.52776 -0.63709,8.43363 4.0345,11.8884 l 0.33014,0.2448 H 20.36725 l 0.3321,-0.25065 c 4.70873,-3.53951 5.67396,-8.41587 4.09887,-11.91572 -1.04194,-2.31515 -3.102387,-3.980653 -5.86862,-4.17298 v -5.99785 l -2.78459,0.41842 0.41842,-3.065002 z"
     id="path61927" /><path
     style="color:#000000;fill:#ffffff;stroke-width:0.999995;-inkscape-stroke:none;fill-opacity:1"
     d="m 11.23466,2.46584 h 3.89795 l -0.45012,3.298109 2.99867,-0.449631 v 3.897451 l -2.99867,-0.44963 0.59837,2.79191 c 7.41792,-3.34133 13.36949,6.85862 4.66894,13.39871 H 6.4374598 c -8.59375,-6.3553 -2.65229,-16.84925 4.6538302,-13.4231 L 11.6843,8.762139 8.6860998,9.211769 V 5.314318 L 11.6843,5.763949 Z"
     id="path65957" /></svg>
