<?xml version="1.0" encoding="UTF-8" standalone="no"?>
<!-- Created with Inkscape (http://www.inkscape.org/) -->

<svg
   width="100"
   height="100"
   viewBox="0 0 26.458332 26.458333"
   version="1.1"
   id="svg59098"
   xml:space="preserve"
   sodipodi:docname="white_knight.svg"
   inkscape:version="1.2.2 (b0a8486541, 2022-12-01)"
   xmlns:inkscape="http://www.inkscape.org/namespaces/inkscape"
   xmlns:sodipodi="http://sodipodi.sourceforge.net/DTD/sodipodi-0.dtd"
   xmlns="http://www.w3.org/2000/svg"
   xmlns:svg="http://www.w3.org/2000/svg"><sodipodi:namedview
     id="namedview66732"
     pagecolor="#ffffff"
     bordercolor="#666666"
     borderopacity="1.0"
     inkscape:showpageshadow="2"
     inkscape:pageopacity="0.0"
     inkscape:pagecheckerboard="0"
     inkscape:deskcolor="#d1d1d1"
     showgrid="false"
     inkscape:zoom="2.9486353"
     inkscape:cx="33.913994"
     inkscape:cy="61.38433"
     inkscape:window-width="1920"
     inkscape:window-height="1015"
     inkscape:window-x="0"
     inkscape:window-y="0"
     inkscape:window-maximized="1"
     inkscape:current-layer="svg59098" /><defs
     id="defs59095" /><path
     style="color:#000000;fill:#000000;stroke-width:0.999995;-inkscape-stroke:none"
     d="m 13.14312,0.8560535 -1.55957,0.399889 c 0,0 -3.3770996,0.895287 -6.1836496,4.371956 -2.80653,3.4766695 -5.07831005,9.5314295 -3.54827,19.5136095 l 0.16239,1.05969 h 1.07287 19.1795396 l -0.0975,-1.339619 c 0,0 -0.14458,-1.714371 -1.26599,-3.889161 -0.71288,-1.38252 -2.05715,-2.98658 -3.77115,-4.600679 1.28688,0.70516 2.68341,1.19983 4.03644,1.258679 0.67652,0.0294 1.36005,-0.05 1.99993,-0.36283 0.6399,-0.31287 1.20211,-0.90788 1.46496,-1.63857 0.815413,-2.26676 0.510303,-4.165359 -0.51936,-5.345339 -1.02968,-1.17998 -2.43783,-1.60265 -3.52244,-1.9243405 -0.0982,-0.0291 -0.3065,-0.17932 -0.64324,-0.641289 -0.33672,-0.461964 -0.74953,-1.153061 -1.34743,-1.867286 -1.02932,-1.229589 -2.79358,-2.373114 -5.4575,-2.580259 z"
     id="path61929" /><path
     style="color:#000000;fill:#ffffff;stroke-width:0.999995;-inkscape-stroke:none;fill-opacity:1"
     d="m 11.89372,2.4658495 v 1.970673 c 6.29539,-0.299385 6.25772,4.5015365 8.34304,5.1200365 2.08531,0.61851 4.67028,1.62416 3.22202,5.65014 -0.63953,1.77788 -3.41595,1.33718 -5.72719,0.0707 -1.4128,-0.77415 -4.60457,-0.58569 -4.60457,-0.58569 7.38021,4.59489 7.79637,10.26105 7.79637,10.26105 H 3.0859204 C 0.10343035,5.4946165 11.89372,2.4658385 11.89372,2.4658395 Z"
     id="path66859" /></svg>
