<?xml version="1.0" encoding="UTF-8" standalone="no"?>
<!-- Created with Inkscape (http://www.inkscape.org/) -->

<svg
   width="100"
   height="100"
   viewBox="0 0 26.458332 26.458333"
   version="1.1"
   id="svg59098"
   xml:space="preserve"
   sodipodi:docname="white_queen.svg"
   inkscape:version="1.2.2 (b0a8486541, 2022-12-01)"
   xmlns:inkscape="http://www.inkscape.org/namespaces/inkscape"
   xmlns:sodipodi="http://sodipodi.sourceforge.net/DTD/sodipodi-0.dtd"
   xmlns="http://www.w3.org/2000/svg"
   xmlns:svg="http://www.w3.org/2000/svg"><sodipodi:namedview
     id="namedview68546"
     pagecolor="#ffffff"
     bordercolor="#666666"
     borderopacity="1.0"
     inkscape:showpageshadow="2"
     inkscape:pageopacity="0.0"
     inkscape:pagecheckerboard="0"
     inkscape:deskcolor="#d1d1d1"
     showgrid="false"
     inkscape:zoom="2.085"
     inkscape:cx="-85.371703"
     inkscape:cy="85.851319"
     inkscape:window-width="1920"
     inkscape:window-height="1015"
     inkscape:window-x="0"
     inkscape:window-y="0"
     inkscape:window-maximized="1"
     inkscape:current-layer="svg59098" /><defs
     id="defs59095" /><path
     style="color:#000000;fill:#000000;stroke-width:0.999995;-inkscape-stroke:none"
     d="m 8.4431762,1.345178 c -1.57922,3.6e-5 -2.87331,1.292182 -2.87334,2.871397 2e-5,1.2428 0.80192,2.308644 1.91312,2.706565 v 6.717649 l -1.29867,-1.1787 c 0.26916,-0.43675 0.42524,-0.94993 0.42525,-1.49763 -4e-5,-1.57946 -1.29387,-2.87366 -2.87334,-2.87335 -1.57922,4e-5 -2.87378995,1.29413 -2.87382995,2.87335 3e-5,1.44124 1.07833995,2.64301 2.46710995,2.84214 l 3.06988,12.39509 h 0.98412 12.6774498 l 3.06841,-12.39509 c 1.38919,-0.1985 2.4666,-1.4004 2.46663,-2.84214 -3e-5,-1.57922 -1.29266,-2.87331 -2.87188,-2.87335 -1.57922,4e-5 -2.87331,1.29413 -2.87334,2.87335 10e-6,0.54724 0.15591,1.05965 0.42476,1.49617 l -1.30013,1.18016 V 6.923628 c 1.11219,-0.39739 1.91506,-1.463551 1.91508,-2.707053 -3e-5,-1.579215 -1.29461,-2.871361 -2.87384,-2.871397 -1.57921,3.6e-5 -2.8733,1.292185 -2.87335,2.871397 3e-5,0.769795 0.30797,1.471731 0.80612,1.989204 l -2.71924,6.2329 -2.71924,-6.233388 c 0.49794,-0.517439 0.80608,-1.219096 0.80611,-1.988716 -5e-5,-1.579212 -1.29462,-2.871361 -2.8738398,-2.871397 z"
     id="path61925" /><path
     id="path68678"
     style="color:#000000;fill:#ffffff;stroke-width:0.999995;-inkscape-stroke:none;fill-opacity:1"
     d="M 8.443412 2.5926065 C 7.5388729 2.5926285 6.8197586 3.3122596 6.8197386 4.2167967 C 6.8197586 5.1213348 7.5388729 5.8425163 8.443412 5.8425373 C 9.3479511 5.8425163 10.067055 5.1213378 10.067085 4.2167967 C 10.067055 3.3122576 9.3479511 2.5926285 8.443412 2.5926065 z M 18.016471 2.5926065 C 17.111942 2.5926285 16.393344 3.3122576 16.393314 4.2167967 C 16.393344 5.1213378 17.111942 5.8425163 18.016471 5.8425373 C 18.92102 5.8425163 19.640641 5.1213348 19.640661 4.2167967 C 19.640641 3.3122596 18.92102 2.5926285 18.016471 2.5926065 z M 9.4536862 6.9044879 C 9.2253565 6.9910998 8.983463 7.0500769 8.7322833 7.0755369 L 8.7322833 16.459977 L 5.3164712 13.358874 C 5.0878614 13.510444 4.8367097 13.630224 4.56923 13.711824 L 7.3830116 24.952998 L 19.076354 24.952998 L 21.890136 13.711307 C 21.623026 13.629657 21.372288 13.509757 21.143928 13.358357 L 17.7276 16.459977 L 17.7276 7.0755369 C 17.47626 7.0500709 17.234646 6.9911778 17.006197 6.9044879 L 13.229683 15.56029 L 9.4536862 6.9044879 z M 3.7362059 9.3389645 C 2.8316668 9.3389845 2.1104854 10.060166 2.1104654 10.964705 C 2.1104854 11.869234 2.8316668 12.588359 3.7362059 12.588379 C 4.640885 12.588549 5.3598594 11.869384 5.3598794 10.964705 C 5.3598594 10.060026 4.640885 9.3387845 3.7362059 9.3389645 z M 22.724194 9.3389645 C 21.819655 9.3389845 21.098473 10.060166 21.098453 10.964705 C 21.098473 11.869234 21.819665 12.588359 22.724194 12.588379 C 23.628723 12.588359 24.347837 11.869234 24.347867 10.964705 C 24.347837 10.060166 23.628723 9.3389845 22.724194 9.3389645 z " /></svg>
