<?xml version="1.0" encoding="UTF-8" standalone="no"?>
<!-- Created with Inkscape (http://www.inkscape.org/) -->

<svg
   width="100"
   height="100"
   viewBox="0 0 26.458332 26.458333"
   version="1.1"
   id="svg59098"
   xml:space="preserve"
   sodipodi:docname="white_pawn.svg"
   inkscape:version="1.2.2 (b0a8486541, 2022-12-01)"
   xmlns:inkscape="http://www.inkscape.org/namespaces/inkscape"
   xmlns:sodipodi="http://sodipodi.sourceforge.net/DTD/sodipodi-0.dtd"
   xmlns="http://www.w3.org/2000/svg"
   xmlns:svg="http://www.w3.org/2000/svg"><sodipodi:namedview
     id="namedview67645"
     pagecolor="#ffffff"
     bordercolor="#666666"
     borderopacity="1.0"
     inkscape:showpageshadow="2"
     inkscape:pageopacity="0.0"
     inkscape:pagecheckerboard="0"
     inkscape:deskcolor="#d1d1d1"
     showgrid="false"
     inkscape:zoom="2.9486353"
     inkscape:cx="148.88243"
     inkscape:cy="42.731633"
     inkscape:window-width="1920"
     inkscape:window-height="1015"
     inkscape:window-x="0"
     inkscape:window-y="0"
     inkscape:window-maximized="1"
     inkscape:current-layer="svg59098" /><defs
     id="defs59095" /><path
     style="color:#000000;fill:#000000;stroke-width:0.999995;-inkscape-stroke:none"
     d="m 13.229897,3.016419 c -3.158436,7.3e-5 -5.7466226,2.586308 -5.7466946,5.74475 v 0.002 c 8.79e-4,1.14567 0.447549,2.18481 1.070921,3.11864 -2.718527,1.79383 -5.568209,5.52433 -5.568209,13.07197 v 1.24746 H 13.229897 23.472418 v -1.24746 c 0,-7.54819 -2.849501,-11.27831 -5.56821,-13.07197 0.623374,-0.93383 1.070043,-1.97297 1.070923,-3.11864 v -0.002 C 18.97506,5.602728 16.388334,3.016492 13.229897,3.016419 Z"
     id="path61919" /><path
     style="color:#000000;fill:#ffffff;stroke-width:0.999995;-inkscape-stroke:none;fill-opacity:1"
     d="m 13.22941,4.264852 a 4.4973901,4.4973901 0 0 1 4.497287,4.497287 4.4973901,4.4973901 0 0 1 -1.598093,3.43466 c 2.62904,1.2043 6.095381,4.37975 6.095381,12.75596 H 13.22941 4.2348364 c 0,-8.37621 3.46634,-11.55166 6.0953786,-12.75596 A 4.4973901,4.4973901 0 0 1 8.7321234,8.762139 4.4973901,4.4973901 0 0 1 13.22941,4.264852 Z"
     id="path67778" /></svg>
