<?xml version="1.0" encoding="UTF-8" standalone="no"?>
<!-- Created with Inkscape (http://www.inkscape.org/) -->

<svg
   width="48"
   height="48"
   viewBox="0 0 12.7 12.7"
   version="1.1"
   id="svg59098"
   xml:space="preserve"
   sodipodi:docname="logo_mono.svg"
   inkscape:version="1.1.2 (0a00cf5339, 2022-02-04)"
   xmlns:inkscape="http://www.inkscape.org/namespaces/inkscape"
   xmlns:sodipodi="http://sodipodi.sourceforge.net/DTD/sodipodi-0.dtd"
   xmlns="http://www.w3.org/2000/svg"
   xmlns:svg="http://www.w3.org/2000/svg"><sodipodi:namedview
     id="namedview70505"
     pagecolor="#000000"
     bordercolor="#666666"
     borderopacity="1.0"
     inkscape:showpageshadow="2"
     inkscape:pageopacity="0"
     inkscape:pagecheckerboard="0"
     inkscape:deskcolor="#d1d1d1"
     showgrid="false"
     inkscape:zoom="4"
     inkscape:cx="-41.25"
     inkscape:cy="-1.5"
     inkscape:window-width="1920"
     inkscape:window-height="1011"
     inkscape:window-x="0"
     inkscape:window-y="32"
     inkscape:window-maximized="1"
     inkscape:current-layer="svg59098"
     inkscape:document-units="mm"
     inkscape:pageshadow="2"
     units="px"
     inkscape:snap-global="true" /><defs
     id="defs59095" /><path
     id="path1060"
     style="fill:#feffff;fill-opacity:1;stroke:none;stroke-width:0.264583px;stroke-linecap:butt;stroke-linejoin:miter;stroke-opacity:1"
     d="m 11.270933,1.345473 -0.214989,0.015366 c 0,0 -0.874347,0.061816 -1.9558419,0.3043282 C 8.4482315,1.8113425 7.7166311,2.0195784 7.0410727,2.3312449 8.795233,1.6272446 11.078911,1.6869535 11.078911,1.6869526 c 0,0 0.966044,1.8763309 0.73988,4.2366162 -0.338876,3.5367228 -3.89851,4.7182702 -3.89851,4.7182702 l 0.068571,-0.640237 c -0.00405,0 -0.00783,-8.49e-4 -0.011821,-8.49e-4 l -0.4904386,1.060926 0.7045825,-0.222082 c 0,0 3.5950601,-1.1486659 3.9530601,-4.8849582 0.236159,-2.4646218 -0.77484,-4.4169785 -0.77484,-4.4169785 z M 4.7797199,2.0579928 c 0,0 -3.559633,1.1815574 -3.8985099,4.7182714 -0.22616243,2.3603028 0.7398798,4.2367828 0.7398798,4.2367828 0,0 3.5571657,0.09306 5.2024605,-1.3216814 C 5.9670192,9.1898919 5.946512,8.256079 5.4527214,8.0501537 4.9878353,7.8562918 4.4487591,7.5900244 4.3909502,7.0040881 c 0.00167,0.00202 0.00281,0.0044 0.00457,0.00642 -0.022737,-0.2108535 0.017213,-0.4632096 0.1462525,-0.7692653 0.00255,-0.00616 0.00528,-0.01242 0.00792,-0.018577 0.017345,-0.040311 0.035746,-0.081255 0.05624,-0.123454 0.1941241,-0.3997608 0.6835792,-0.3782281 1.2063358,-0.1200765 0.026053,0.012868 0.049212,0.027188 0.073629,0.040874 0.023916,0.013308 0.048579,0.02651 0.071105,0.04002 0.2708544,0.1687265 0.4600274,0.3847554 0.7883494,0.5812983 0.00937,0.00581 0.019975,0.011021 0.029554,0.016721 0.036256,0.021039 0.071509,0.042202 0.1114637,0.062652 C 7.4002748,6.9837648 7.9017739,7.0015321 8.0977706,6.5979231 8.7085794,5.3401191 7.9033527,4.923445 7.2472724,4.6498499 6.758455,4.4460013 6.7328067,3.5289398 5.9014383,3.0240077 c -0.00114,9.675e-4 -0.0022,0.00194 -0.00334,0.0029 C 5.6136144,2.854122 5.235257,2.7293495 4.7110157,2.6982557 Z M 5.528719,3.7988451 c 0.023801,0 0.047743,8.506e-4 0.071773,0.00334 0.219659,0.023581 0.4086586,0.1652442 0.4928028,0.3695176 C 5.9679717,4.3538679 5.7531452,4.4527845 5.5332761,4.4294214 5.3136198,4.4056993 5.1246192,4.2637391 5.040643,4.0593971 5.1523029,3.8973721 5.3348913,3.8014214 5.5287164,3.7988099 Z M 7.1050791,8.2670007 C 6.907326,8.2660331 6.7202763,8.3631774 6.6067034,8.5282633 6.6908432,8.7325359 6.8798473,8.8740325 7.0995062,8.8976121 7.3192047,8.9209735 7.533982,8.8224791 7.6593552,8.6405714 7.5753737,8.4362197 7.3863793,8.2940791 7.1667213,8.2703782 c -0.020617,-0.00229 -0.041182,-0.00334 -0.06164,-0.00334 z"
     sodipodi:nodetypes="ccsccccccccccccccccccccscccccccccccccccccccsccccss" /></svg>
