<?xml version="1.0" encoding="UTF-8" standalone="no"?>
<!-- Created with Inkscape (http://www.inkscape.org/) -->

<svg
   width="100mm"
   height="40mm"
   viewBox="0 0 99.999997 39.999999"
   version="1.1"
   id="svg59098"
   xml:space="preserve"
   sodipodi:docname="logo.svg"
   inkscape:version="1.1.2 (0a00cf5339, 2022-02-04)"
   xmlns:inkscape="http://www.inkscape.org/namespaces/inkscape"
   xmlns:sodipodi="http://sodipodi.sourceforge.net/DTD/sodipodi-0.dtd"
   xmlns="http://www.w3.org/2000/svg"
   xmlns:svg="http://www.w3.org/2000/svg"><sodipodi:namedview
     id="namedview70505"
     pagecolor="#000000"
     bordercolor="#666666"
     borderopacity="1.0"
     inkscape:showpageshadow="2"
     inkscape:pageopacity="0"
     inkscape:pagecheckerboard="0"
     inkscape:deskcolor="#d1d1d1"
     showgrid="false"
     inkscape:zoom="1.4743176"
     inkscape:cx="118.0207"
     inkscape:cy="23.061516"
     inkscape:window-width="1920"
     inkscape:window-height="1011"
     inkscape:window-x="0"
     inkscape:window-y="32"
     inkscape:window-maximized="1"
     inkscape:current-layer="svg59098"
     inkscape:document-units="mm"
     inkscape:pageshadow="2" /><defs
     id="defs59095" /><path
     id="path1060"
     style="fill:#feffff;fill-opacity:1;stroke:none;stroke-width:0.264583px;stroke-linecap:butt;stroke-linejoin:miter;stroke-opacity:1"
     d="m 41.748346,5.1347664 -0.657842,0.047024 c 0,0 -2.6754,0.1891585 -5.984647,0.9312089 -1.994649,0.4472781 -4.233259,1.0844557 -6.300391,2.0381198 5.367526,-2.1541581 12.355317,-1.9714554 12.355317,-1.971458 0,0 2.95598,5.7413529 2.263944,12.9635519 -1.03692,10.82196 -11.928985,14.437361 -11.928985,14.437361 l 0.209806,-1.959053 c -0.01228,0 -0.02397,-0.0026 -0.03617,-0.0026 l -1.500684,3.246313 2.155941,-0.679545 c 0,0 11.000467,-3.514788 12.095903,-14.947407 C 45.143156,11.696827 42.049619,5.7228425 42.049619,5.7228425 Z M 21.88599,7.3149939 c 0,0 -10.892062,3.6154281 -11.9289865,14.4373621 -0.69203,7.222251 2.2639445,12.964066 2.2639455,12.964066 0,0 10.884514,0.284756 15.918924,-4.044197 -2.620884,-1.534451 -2.683635,-4.39181 -4.194575,-5.021916 C 22.5228,25.057113 20.87329,24.242367 20.6964,22.449471 c 0.0052,0.0061 0.0087,0.01355 0.01395,0.01964 -0.06957,-0.645187 0.05266,-1.417368 0.447516,-2.353861 0.0079,-0.01878 0.01617,-0.03801 0.02429,-0.05684 0.05308,-0.123349 0.109384,-0.248638 0.172082,-0.377754 0.593995,-1.223222 2.091672,-1.157334 3.691247,-0.36742 0.07971,0.03937 0.150575,0.0832 0.225309,0.125057 0.07319,0.04072 0.148646,0.08112 0.217559,0.122473 0.828783,0.516281 1.407628,1.177305 2.412256,1.778703 0.02866,0.01773 0.06113,0.03372 0.09043,0.05116 0.110932,0.06437 0.218813,0.129146 0.341067,0.191719 1.572493,0.804942 3.107023,0.859309 3.706749,-0.375687 1.869003,-3.848735 -0.594895,-5.123709 -2.602426,-5.960877 -1.495724,-0.623755 -1.574205,-3.429856 -4.118094,-4.974889 -0.0035,0.0029 -0.0068,0.0059 -0.01034,0.0088 C 24.437513,9.7509808 23.279784,9.3691924 21.675668,9.2740482 Z M 47.918511,9.4435456 V 19.632072 h 1.888773 v -4.177523 h 3.143478 v -1.806091 h -3.143478 v -2.39882 h 3.295407 V 9.4435456 Z m 9.320361,0 -4.246769,10.1885264 h 2.082043 l 1.130681,-2.633431 h 3.625617 l 1.08934,2.633431 h 2.082043 L 58.727671,9.4435456 Z m 6.797002,0 V 19.632072 h 1.888773 V 9.4435456 Z m 3.860229,0 V 19.632072 h 1.888773 v -3.901571 l 2.674773,3.901571 h 2.329572 l -2.756937,-3.763595 c 0.785857,-0.193013 1.171636,-0.372389 1.61282,-0.744657 0.703139,-0.592826 1.047999,-1.39254 1.047999,-2.412773 0,-1.047802 -0.37225,-1.916557 -1.075386,-2.509407 C 72.955942,9.6363845 72.224842,9.4435456 70.832359,9.4435456 Z m 8.189163,0 V 19.632072 h 5.473568 V 17.825981 H 77.97404 v -2.371432 h 3.433381 V 13.648458 H 77.97404 v -2.39882 h 3.584794 V 9.4435456 Z m 7.16959,0 V 19.632072 h 1.888773 v -3.901571 l 2.67477,3.901571 h 2.329575 l -2.757453,-3.763595 c 0.78586,-0.193013 1.172146,-0.372389 1.613336,-0.744657 0.70313,-0.592826 1.047999,-1.39254 1.047999,-2.412773 0,-1.047802 -0.372248,-1.916557 -1.075386,-2.509407 C 88.314689,9.6363845 87.5836,9.4435456 86.191109,9.4435456 Z m -13.46998,1.8060924 h 0.840774 c 0.882372,0 1.364803,0.0967 1.668116,0.358634 0.330888,0.261964 0.496613,0.661737 0.496613,1.158069 0,1.075372 -0.620623,1.544092 -2.082046,1.544092 h -0.923457 z m 15.358753,0 h 0.840774 c 0.882362,0 1.364806,0.0967 1.668116,0.358634 0.33089,0.261964 0.49661,0.661737 0.49661,1.158069 0,1.075372 -0.620623,1.544092 -2.082044,1.544092 h -0.923456 z m -27.160617,0.854728 1.08934,3.088184 H 56.894191 Z M 24.17784,12.641801 c 0.07283,0 0.146095,0.0026 0.219626,0.01033 0.672131,0.07215 1.250447,0.505629 1.507918,1.130681 -0.383474,0.557398 -1.040818,0.860072 -1.71359,0.788582 -0.672123,-0.07258 -1.250444,-0.506968 -1.507402,-1.132231 0.341667,-0.495776 0.900366,-0.789376 1.493448,-0.797367 z m 28.456144,9.460404 c -2.881482,0 -5.239472,2.357485 -5.239472,5.238957 0,2.950421 2.385507,5.307686 5.363498,5.307686 2.095624,0 3.901358,-1.157699 4.701003,-3.018937 h -2.219502 c -0.841008,0.868574 -1.543966,1.19941 -2.522845,1.19941 -1.888815,0 -3.419427,-1.572104 -3.419427,-3.474723 0,-0.827219 0.317386,-1.709501 0.84129,-2.316138 0.620416,-0.730699 1.502775,-1.116727 2.536799,-1.116727 1.185682,0 1.984906,0.385948 2.674255,1.282092 h 2.10943 C 57.05919,24.321466 56.700905,23.838966 56.011557,23.27371 55.07404,22.515414 53.874816,22.102205 52.633984,22.102205 Z m 25.271327,0 c -1.654439,0 -2.964161,1.281855 -2.964161,2.894914 0,1.282197 0.744167,2.26129 2.122868,2.771407 1.364912,0.510117 1.461434,0.551604 1.76475,0.785999 0.303313,0.248152 0.469223,0.606637 0.469223,1.034045 0,0.7307 -0.565296,1.240751 -1.378728,1.240751 -0.841007,0 -1.296006,-0.413867 -1.378728,-1.268656 h -1.971971 c 0.06893,0.79965 0.248364,1.309887 0.661974,1.861385 0.606629,0.772054 1.599552,1.226798 2.688725,1.226798 1.833671,0 3.253549,-1.420047 3.253549,-3.267501 0,-0.854815 -0.303395,-1.571369 -0.910023,-2.122867 -0.399823,-0.372242 -0.716958,-0.537921 -1.723409,-0.923975 -0.965091,-0.358457 -0.992812,-0.372044 -1.130681,-0.454753 -0.372245,-0.234393 -0.564819,-0.551732 -0.564822,-0.923974 0,-0.606637 0.427064,-1.034045 1.04748,-1.034045 0.634201,0 1.020242,0.386041 1.075389,1.075386 h 1.958019 c -0.04136,-0.772054 -0.220977,-1.295975 -0.634587,-1.806091 -0.551481,-0.689346 -1.433563,-1.088823 -2.384867,-1.088823 z m 7.403682,0 c -1.654442,0 -2.964161,1.281855 -2.964161,2.894914 0,1.282197 0.744167,2.26129 2.122868,2.771407 1.364909,0.510117 1.46144,0.551604 1.76475,0.785999 0.303321,0.248152 0.468707,0.606637 0.468707,1.034045 0,0.7307 -0.565299,1.240751 -1.378728,1.240751 -0.841007,0 -1.296006,-0.413867 -1.378728,-1.268656 h -1.971455 c 0.06893,0.79965 0.248364,1.309887 0.661974,1.861385 0.606629,0.772054 1.599036,1.226798 2.688209,1.226798 1.833668,0 3.254055,-1.420047 3.254065,-3.267501 0,-0.854815 -0.303392,-1.571369 -0.910021,-2.122867 -0.399822,-0.372242 -0.716949,-0.537921 -1.723411,-0.923975 -0.965084,-0.358457 -0.992807,-0.372044 -1.130678,-0.454753 -0.372248,-0.234393 -0.565341,-0.551732 -0.565341,-0.923974 0,-0.606637 0.427585,-1.034045 1.047996,-1.034045 0.634201,0 1.020239,0.386041 1.075388,1.075386 h 1.95802 c -0.0414,-0.772054 -0.220977,-1.295975 -0.634587,-1.806091 -0.551479,-0.689346 -1.433563,-1.088823 -2.384867,-1.088823 z m -26.581322,0.178801 v 10.189042 h 1.888773 V 28.19589 h 3.639572 v 4.274158 h 1.888773 V 22.281006 h -1.888773 v 4.108793 h -3.639572 v -4.108793 z m 9.375138,0 v 10.189042 h 5.473567 v -1.806091 h -3.584794 v -2.371432 h 3.432865 v -1.806091 h -3.432865 v -2.399337 h 3.584794 v -1.806091 z m -39.10149,4.032828 c -0.605102,-0.0029 -1.177452,0.294292 -1.524971,0.799435 0.257458,0.625051 0.835789,1.058012 1.507918,1.130163 0.672251,0.07149 1.329447,-0.229885 1.713074,-0.786515 -0.25696,-0.62529 -0.835276,-1.060225 -1.507402,-1.132747 -0.06308,-0.0069 -0.126021,-0.01034 -0.188619,-0.01034 z" /></svg>
